/* XPM */
static const char *OSGQGLManagedWidget_pixmap[]={
"32 32 245 2",
"Qt c None",
"bV c #000000",
"#D c #29629c",
"#G c #2a639c",
"bh c #2b649c",
"be c #2b649d",
"ba c #2c649d",
".z c #2d659d",
".G c #2e659d",
"an c #2e669e",
".A c #2f679e",
".V c #30679f",
"#5 c #3269a0",
"bl c #3369a0",
".2 c #346aa0",
"#i c #346ba1",
"#m c #376da2",
".H c #386da2",
".3 c #396ea3",
".F c #3a6ea3",
"aE c #3a6fa3",
"aZ c #3c70a4",
"a0 c #3d71a4",
"as c #3d71a5",
"by c #3f73a6",
"#7 c #4072a5",
"bE c #4174a7",
"at c #4375a7",
".y c #4475a7",
"aW c #4778a9",
"aq c #4879aa",
"#J c #4a4f51",
"#n c #4a7aa9",
"aK c #4b5052",
".Z c #4b7baa",
".M c #4c5153",
"#f c #4d5254",
".s c #4e5355",
".8 c #4e7dac",
".r c #4f5456",
"bx c #4f7eac",
"#U c #4f7ead",
"aR c #505557",
"aB c #505658",
"bF c #507eac",
"#T c #5381ae",
".t c #54595b",
"ap c #5481ae",
"#A c #555a5d",
"bz c #5682af",
"aj c #575c5f",
"bD c #5884b0",
".R c #5a6062",
"bq c #5c6163",
"a5 c #5c6264",
"am c #5c87b2",
"bd c #5e89b3",
"bp c #606567",
"#8 c #6089b2",
".q c #63686a",
".B c #638cb4",
"aQ c #646a6d",
"bk c #668db5",
"#R c #6890b7",
".9 c #6990b7",
"br c #6a7072",
"bb c #6a91b7",
".W c #6d93b9",
".L c #6e7375",
".I c #6e94b9",
"#e c #72787b",
".N c #747b7e",
"#S c #7498bb",
".E c #7498bc",
"#B c #757b7e",
"a2 c #7599bc",
"a8 c #787e81",
".u c #787f81",
"ai c #798083",
"bo c #7a8082",
"## c #7d8386",
"a4 c #7d8487",
"ar c #7d9fc0",
"aw c #7e8486",
"aX c #7e9ebe",
"bG c #7e9fbf",
"bY c #800000",
"bU c #808080",
"aC c #808588",
"aF c #81a0bf",
"#P c #848a8d",
".4 c #84a3c2",
"a6 c #858c8e",
"aG c #87a5c3",
"#F c #88a6c4",
"aJ c #8a9094",
".7 c #8aa7c4",
"bj c #8ba7c4",
"bi c #8ca8c4",
"#4 c #8ca8c5",
"bc c #8ea9c5",
"#s c #909598",
"aL c #909599",
".Q c #90969a",
"bw c #90abc6",
"a7 c #919699",
"#1 c #92989c",
"a. c #92acc6",
"bC c #92adc8",
"bs c #939a9c",
"#V c #949da1",
".p c #9aa1a5",
".Y c #9ab3cb",
"#h c #9db4cb",
"a# c #9eb5cb",
"#E c #9eb6cd",
"#I c #a1a9ae",
".O c #a3a8ab",
"b# c #a6bcd0",
".S c #a7aaab",
".P c #a9afb3",
".6 c #aabdd0",
"#6 c #aabed2",
".x c #abbdd1",
".5 c #acbfd1",
"aa c #adb4b7",
".X c #adbfd2",
"#C c #aec4d7",
"#a c #afb5b8",
"bA c #b0c2d3",
"#9 c #b2c3d3",
"aT c #b4c8da",
".1 c #b5c5d6",
"bn c #b6bdbf",
"aH c #bac8d7",
"a9 c #bbbec0",
"bf c #bdcad8",
"ab c #bfc4c8",
"#K c #bfc7cb",
"aU c #bfccd9",
".v c #c0c7ca",
".J c #c1cedb",
"#r c #c2ccd2",
"ao c #c3cfda",
"a1 c #c3cfdb",
"bH c #c4d0dc",
"#g c #c5c8ca",
"#H c #c5d0dc",
".0 c #c5d1dc",
"bg c #c7d2de",
"aA c #c9d0d4",
"aS c #cad1d5",
"aP c #cbd0d4",
".U c #cbd5de",
"#q c #cdd6df",
"#z c #ced8dd",
".D c #cfd7e0",
"#W c #d0d8db",
"bt c #d2d9dc",
"al c #d2dae0",
"#o c #d3dae1",
".K c #d4dce1",
"#d c #d6dcdf",
"#l c #d6dce3",
"aY c #d8dee3",
".C c #d9dee3",
".f c #d9dfe3",
".l c #d9dfe4",
".m c #dadfe4",
"bm c #dbe5ea",
"#. c #dbe5eb",
"bW c #dcdcdc",
"av c #dce0e2",
"#2 c #dce0e3",
"#j c #dde1e5",
".e c #dde3e7",
".o c #dde4e8",
"ah c #dde5e9",
"#k c #dee1e5",
"aD c #dee2e5",
"#Q c #dee3e7",
"#O c #dee6ea",
".n c #dee7ed",
"bB c #dfe2e5",
"az c #dfe5e9",
"ae c #dfe7ea",
".g c #dfe7eb",
"aI c #dfe8ec",
"a3 c #dfe8ed",
"aM c #e0e2e3",
".j c #e0e3e6",
"ak c #e0e5e7",
"ax c #e0e6ea",
"#0 c #e0e7ea",
"#N c #e0e7eb",
"#y c #e1e7ea",
"#M c #e1e8eb",
".# c #e1eaee",
"bL c #e2e6e9",
"ay c #e2e8eb",
"#L c #e2e8ec",
"ad c #e2e9ec",
".c c #e2eaef",
"bv c #e3e5e6",
"#b c #e3e8eb",
"ag c #e3e9ec",
"bP c #e4e6e7",
"#3 c #e4e6e8",
"bR c #e4e7e9",
"bM c #e4e8eb",
"#x c #e4e9eb",
"af c #e4eaed",
"au c #e5e7e8",
"#w c #e5eaec",
".b c #e5ecf0",
"#p c #e6e7e8",
"aV c #e6e8e8",
"bO c #e6e8e9",
"bu c #e6e8ea",
"bQ c #e6e9ea",
"bI c #e6eaed",
"#X c #e6ebee",
".k c #e7e8e8",
"aO c #e7e8e9",
"#c c #e7e9e9",
"b. c #e7e9ea",
"bK c #e7eaec",
"bJ c #e7ebed",
".a c #e7eef1",
".d c #e7eef2",
".T c #e8e8e8",
"aN c #e8e8e9",
".i c #e8e9e9",
"bS c #e8e9eb",
"#v c #e8ebed",
".h c #e8eced",
"#t c #e8ecee",
"bN c #e9eaeb",
"#Z c #e9edf0",
"bT c #eaebec",
"#u c #eaedee",
"#Y c #eaedef",
"ac c #eaeef1",
".w c #ebecec",
"bX c #ff0000",
"Qt.#.a.b.c.d.e.f.g.hQtQtQtQtQt.i.f.jQtQtQtQtQtQt.k.l.m.kQtQtQtQt",
"Qt.n.b.o.p.q.r.s.t.u.v.wQtQt.x.y.z.A.B.CQtQt.D.E.F.z.G.H.I.JQtQt",
"Qt.n.K.L.M.N.O.P.Q.R.s.S.T.U.V.W.X.Y.Z.0Qt.1.2.3.4.5.6.7.8.9QtQt",
"Qt#.##.r#a#b.iQt#c#d#e#f#g#h#i#jQtQt.j#k#l#m#n#oQtQtQtQt#p#qQtQt",
"Qt#r.M#s#t#u#v#w#x#y#z#A#B#C#D#E.TQtQtQt#F#G#HQtQtQtQtQtQtQtQtQt",
"Qt#I#J#K#L#M#N#M#L#L#O#P.t#Q#R#D#S#lQtQt#T#UQtQtQtQtQtQtQtQtQtQt",
"Qt#V#J#W#O#M#X#Y#Z#Z#0#1#J#2#3#4#5#5#6Qt#7#8QtQtQtQt#9a.a.a#.kQt",
"Qtaa#JabacadaeafagahahaiajakQt.ialamanaoapaq.iQtQtQtaras.VatauQt",
"Qtav.rawaxayay#0azazaAaBaC#wQtQtQtaDaEaFaG#DaHQtQtQt#p#3.EatauQt",
"QtaIaJaKaLaMaNQtaOaPaQaRaSaTaU.TQtaVaWaXaYaZa0a1.TQtQtQta2atauQt",
"Qta3#Oa4#Ja5a6a7a8.r.ta9b.b#babbbcbdbebfQtbga0bh.BbibjbkblatauQt",
"Qt.caIbmbnbobpbqbrbsbtbuQtbvbwbxbybzbA.TQtQtbBbCbDbEbybFbGbHQtQt",
"Qt#ybI#xbJ#tbKbLbMbN.ibOQtQtQt.kbP.TQtQtQtQtbObQb.bRbRbSbNbTQtQt",
"QtQtQtQtQtQtQtQtQtQtQtQtQtQtQtQtQtQtQtQtQtQtQtQtQtQtQtQtQtQtQtQt",
"QtQtQtQtQtQtQtQtQtQtQtQtQtQtQtQtQtQtQtQtQtQtQtQtQtQtQtQtQtQtQtQt",
"QtQtQtQtbUbUbUbUbUbUbUbUbUbUbUbUbUbUbUbUbUbUbUbUbUbUbUbUbUbUQtQt",
"QtQtQtQtbUbVbVbVbVbVbVbVbVbVbVbVbVbVbVbVbVbVbVbVbVbVbVbVbVbWQtQt",
"QtQtQtQtbUbVbVbVbVbVbVbVbVbVbVbVbVbVbVbVbVbVbVbVbVbVbVbVbVbWQtQt",
"QtQtQtQtbUbVbVbVbVbVbVbVbVbVbVbVbVbVbVbVbVbVbVbVbVbVbVbVbVbWQtQt",
"QtQtQtQtbUbVbVbVbVbVbVbVbVbVbVbXbVbVbVbVbVbVbVbVbVbVbVbVbVbWQtQt",
"QtQtQtQtbUbVbVbVbVbVbVbVbVbVbVbXbYbVbVbVbVbVbVbVbVbVbVbVbVbWQtQt",
"QtQtQtQtbUbVbVbVbVbVbVbVbVbXbXbVbXbXbVbVbVbVbVbVbVbVbVbVbVbWQtQt",
"QtQtQtQtbUbVbVbVbVbVbVbVbVbVbYbXbVbYbYbVbVbVbVbVbVbVbVbVbVbWQtQt",
"QtQtQtQtbUbVbVbVbVbVbVbVbVbVbVbXbYbVbVbVbVbVbVbVbVbVbVbVbVbWQtQt",
"QtQtQtQtbUbVbVbVbVbVbVbVbVbVbVbVbYbVbVbVbVbVbVbVbVbVbVbVbVbWQtQt",
"QtQtQtQtbUbVbVbVbVbVbVbVbVbVbVbVbVbVbVbVbVbVbVbVbVbVbVbVbVbWQtQt",
"QtQtQtQtbUbVbVbVbVbVbVbVbVbVbVbVbVbVbVbVbVbVbVbVbVbVbVbVbVbWQtQt",
"QtQtQtQtbUbVbVbVbVbVbVbVbVbVbVbVbVbVbVbVbVbVbVbVbVbVbVbVbVbWQtQt",
"QtQtQtQtbUbWbWbWbWbWbWbWbWbWbWbWbWbWbWbWbWbWbWbWbWbWbWbWbWbWQtQt",
"QtQtQtQtQtQtQtQtQtQtQtQtQtQtQtQtQtQtQtQtQtQtQtQtQtQtQtQtQtQtQtQt",
"QtQtQtQtQtQtQtQtQtQtQtQtQtQtQtQtQtQtQtQtQtQtQtQtQtQtQtQtQtQtQtQt",
"QtQtQtQtQtQtQtQtQtQtQtQtQtQtQtQtQtQtQtQtQtQtQtQtQtQtQtQtQtQtQtQt"};
