 0
SECTION
 2
HEADER
 9
$ACADVER
 1
AC1009
 0
ENDSEC
 0
SECTION
 2
TABLES
 0
TABLE
 2
LTYPE
 70
1
 0
LTYPE
 2
CONTINUOUS
 70
64
 3
solid line
 72
65
 73
0
 40
0.0
 0
ENDTAB
 0
TABLE
 2
LAYER
 70
6
 0
LAYER
 2
0
 70
0
 62
7
 6
CONTINUOUS
 0
LAYER
 2
SPHERE
 70
64
 62
7
 6
CONTINUOUS
 0
ENDTAB
 0
ENDSEC
 0
SECTION
 2
BLOCKS
 0
ENDSEC
 0
SECTION
 2
ENTITIES
 0
POLYLINE
 8
SPHERE
 66
1
 10
0.0
 20
0.0
 30
0.0
 70
64
 71
266
 72
288
 0
VERTEX
 8
SPHERE
 10
0
 20
0
 30
-100
 70
192
 0
VERTEX
 8
SPHERE
 10
0
 20
0
 30
100
 70
192
 0
VERTEX
 8
SPHERE
 10
25.8819
 20
0
 30
-96.5926
 70
192
 0
VERTEX
 8
SPHERE
 10
25
 20
6.6987
 30
-96.5926
 70
192
 0
VERTEX
 8
SPHERE
 10
22.4144
 20
12.941
 30
-96.5926
 70
192
 0
VERTEX
 8
SPHERE
 10
18.3013
 20
18.3013
 30
-96.5926
 70
192
 0
VERTEX
 8
SPHERE
 10
12.941
 20
22.4144
 30
-96.5926
 70
192
 0
VERTEX
 8
SPHERE
 10
6.6987
 20
25
 30
-96.5926
 70
192
 0
VERTEX
 8
SPHERE
 10
0
 20
25.8819
 30
-96.5926
 70
192
 0
VERTEX
 8
SPHERE
 10
-6.6987
 20
25
 30
-96.5926
 70
192
 0
VERTEX
 8
SPHERE
 10
-12.941
 20
22.4144
 30
-96.5926
 70
192
 0
VERTEX
 8
SPHERE
 10
-18.3013
 20
18.3013
 30
-96.5926
 70
192
 0
VERTEX
 8
SPHERE
 10
-22.4144
 20
12.941
 30
-96.5926
 70
192
 0
VERTEX
 8
SPHERE
 10
-25
 20
6.6987
 30
-96.5926
 70
192
 0
VERTEX
 8
SPHERE
 10
-25.8819
 20
0
 30
-96.5926
 70
192
 0
VERTEX
 8
SPHERE
 10
-25
 20
-6.6987
 30
-96.5926
 70
192
 0
VERTEX
 8
SPHERE
 10
-22.4144
 20
-12.941
 30
-96.5926
 70
192
 0
VERTEX
 8
SPHERE
 10
-18.3013
 20
-18.3013
 30
-96.5926
 70
192
 0
VERTEX
 8
SPHERE
 10
-12.941
 20
-22.4144
 30
-96.5926
 70
192
 0
VERTEX
 8
SPHERE
 10
-6.6987
 20
-25
 30
-96.5926
 70
192
 0
VERTEX
 8
SPHERE
 10
0
 20
-25.8819
 30
-96.5926
 70
192
 0
VERTEX
 8
SPHERE
 10
6.6987
 20
-25
 30
-96.5926
 70
192
 0
VERTEX
 8
SPHERE
 10
12.941
 20
-22.4144
 30
-96.5926
 70
192
 0
VERTEX
 8
SPHERE
 10
18.3013
 20
-18.3013
 30
-96.5926
 70
192
 0
VERTEX
 8
SPHERE
 10
22.4144
 20
-12.941
 30
-96.5926
 70
192
 0
VERTEX
 8
SPHERE
 10
25
 20
-6.6987
 30
-96.5926
 70
192
 0
VERTEX
 8
SPHERE
 10
50
 20
0
 30
-86.6025
 70
192
 0
VERTEX
 8
SPHERE
 10
48.2963
 20
12.941
 30
-86.6025
 70
192
 0
VERTEX
 8
SPHERE
 10
43.3013
 20
25
 30
-86.6025
 70
192
 0
VERTEX
 8
SPHERE
 10
35.3553
 20
35.3553
 30
-86.6025
 70
192
 0
VERTEX
 8
SPHERE
 10
25
 20
43.3013
 30
-86.6025
 70
192
 0
VERTEX
 8
SPHERE
 10
12.941
 20
48.2963
 30
-86.6025
 70
192
 0
VERTEX
 8
SPHERE
 10
0
 20
50
 30
-86.6025
 70
192
 0
VERTEX
 8
SPHERE
 10
-12.941
 20
48.2963
 30
-86.6025
 70
192
 0
VERTEX
 8
SPHERE
 10
-25
 20
43.3013
 30
-86.6025
 70
192
 0
VERTEX
 8
SPHERE
 10
-35.3553
 20
35.3553
 30
-86.6025
 70
192
 0
VERTEX
 8
SPHERE
 10
-43.3013
 20
25
 30
-86.6025
 70
192
 0
VERTEX
 8
SPHERE
 10
-48.2963
 20
12.941
 30
-86.6025
 70
192
 0
VERTEX
 8
SPHERE
 10
-50
 20
0
 30
-86.6025
 70
192
 0
VERTEX
 8
SPHERE
 10
-48.2963
 20
-12.941
 30
-86.6025
 70
192
 0
VERTEX
 8
SPHERE
 10
-43.3013
 20
-25
 30
-86.6025
 70
192
 0
VERTEX
 8
SPHERE
 10
-35.3553
 20
-35.3553
 30
-86.6025
 70
192
 0
VERTEX
 8
SPHERE
 10
-25
 20
-43.3013
 30
-86.6025
 70
192
 0
VERTEX
 8
SPHERE
 10
-12.941
 20
-48.2963
 30
-86.6025
 70
192
 0
VERTEX
 8
SPHERE
 10
0
 20
-50
 30
-86.6025
 70
192
 0
VERTEX
 8
SPHERE
 10
12.941
 20
-48.2963
 30
-86.6025
 70
192
 0
VERTEX
 8
SPHERE
 10
25
 20
-43.3013
 30
-86.6025
 70
192
 0
VERTEX
 8
SPHERE
 10
35.3553
 20
-35.3553
 30
-86.6025
 70
192
 0
VERTEX
 8
SPHERE
 10
43.3013
 20
-25
 30
-86.6025
 70
192
 0
VERTEX
 8
SPHERE
 10
48.2963
 20
-12.941
 30
-86.6025
 70
192
 0
VERTEX
 8
SPHERE
 10
70.7107
 20
0
 30
-70.7107
 70
192
 0
VERTEX
 8
SPHERE
 10
68.3013
 20
18.3013
 30
-70.7107
 70
192
 0
VERTEX
 8
SPHERE
 10
61.2372
 20
35.3553
 30
-70.7107
 70
192
 0
VERTEX
 8
SPHERE
 10
50
 20
50
 30
-70.7107
 70
192
 0
VERTEX
 8
SPHERE
 10
35.3553
 20
61.2372
 30
-70.7107
 70
192
 0
VERTEX
 8
SPHERE
 10
18.3013
 20
68.3013
 30
-70.7107
 70
192
 0
VERTEX
 8
SPHERE
 10
0
 20
70.7107
 30
-70.7107
 70
192
 0
VERTEX
 8
SPHERE
 10
-18.3013
 20
68.3013
 30
-70.7107
 70
192
 0
VERTEX
 8
SPHERE
 10
-35.3553
 20
61.2372
 30
-70.7107
 70
192
 0
VERTEX
 8
SPHERE
 10
-50
 20
50
 30
-70.7107
 70
192
 0
VERTEX
 8
SPHERE
 10
-61.2372
 20
35.3553
 30
-70.7107
 70
192
 0
VERTEX
 8
SPHERE
 10
-68.3013
 20
18.3013
 30
-70.7107
 70
192
 0
VERTEX
 8
SPHERE
 10
-70.7107
 20
0
 30
-70.7107
 70
192
 0
VERTEX
 8
SPHERE
 10
-68.3013
 20
-18.3013
 30
-70.7107
 70
192
 0
VERTEX
 8
SPHERE
 10
-61.2372
 20
-35.3553
 30
-70.7107
 70
192
 0
VERTEX
 8
SPHERE
 10
-50
 20
-50
 30
-70.7107
 70
192
 0
VERTEX
 8
SPHERE
 10
-35.3553
 20
-61.2372
 30
-70.7107
 70
192
 0
VERTEX
 8
SPHERE
 10
-18.3013
 20
-68.3013
 30
-70.7107
 70
192
 0
VERTEX
 8
SPHERE
 10
0
 20
-70.7107
 30
-70.7107
 70
192
 0
VERTEX
 8
SPHERE
 10
18.3013
 20
-68.3013
 30
-70.7107
 70
192
 0
VERTEX
 8
SPHERE
 10
35.3553
 20
-61.2372
 30
-70.7107
 70
192
 0
VERTEX
 8
SPHERE
 10
50
 20
-50
 30
-70.7107
 70
192
 0
VERTEX
 8
SPHERE
 10
61.2372
 20
-35.3553
 30
-70.7107
 70
192
 0
VERTEX
 8
SPHERE
 10
68.3013
 20
-18.3013
 30
-70.7107
 70
192
 0
VERTEX
 8
SPHERE
 10
86.6025
 20
0
 30
-50
 70
192
 0
VERTEX
 8
SPHERE
 10
83.6516
 20
22.4144
 30
-50
 70
192
 0
VERTEX
 8
SPHERE
 10
75
 20
43.3013
 30
-50
 70
192
 0
VERTEX
 8
SPHERE
 10
61.2372
 20
61.2372
 30
-50
 70
192
 0
VERTEX
 8
SPHERE
 10
43.3013
 20
75
 30
-50
 70
192
 0
VERTEX
 8
SPHERE
 10
22.4144
 20
83.6516
 30
-50
 70
192
 0
VERTEX
 8
SPHERE
 10
0
 20
86.6025
 30
-50
 70
192
 0
VERTEX
 8
SPHERE
 10
-22.4144
 20
83.6516
 30
-50
 70
192
 0
VERTEX
 8
SPHERE
 10
-43.3013
 20
75
 30
-50
 70
192
 0
VERTEX
 8
SPHERE
 10
-61.2372
 20
61.2372
 30
-50
 70
192
 0
VERTEX
 8
SPHERE
 10
-75
 20
43.3013
 30
-50
 70
192
 0
VERTEX
 8
SPHERE
 10
-83.6516
 20
22.4144
 30
-50
 70
192
 0
VERTEX
 8
SPHERE
 10
-86.6025
 20
0
 30
-50
 70
192
 0
VERTEX
 8
SPHERE
 10
-83.6516
 20
-22.4144
 30
-50
 70
192
 0
VERTEX
 8
SPHERE
 10
-75
 20
-43.3013
 30
-50
 70
192
 0
VERTEX
 8
SPHERE
 10
-61.2372
 20
-61.2372
 30
-50
 70
192
 0
VERTEX
 8
SPHERE
 10
-43.3013
 20
-75
 30
-50
 70
192
 0
VERTEX
 8
SPHERE
 10
-22.4144
 20
-83.6516
 30
-50
 70
192
 0
VERTEX
 8
SPHERE
 10
0
 20
-86.6025
 30
-50
 70
192
 0
VERTEX
 8
SPHERE
 10
22.4144
 20
-83.6516
 30
-50
 70
192
 0
VERTEX
 8
SPHERE
 10
43.3013
 20
-75
 30
-50
 70
192
 0
VERTEX
 8
SPHERE
 10
61.2372
 20
-61.2372
 30
-50
 70
192
 0
VERTEX
 8
SPHERE
 10
75
 20
-43.3013
 30
-50
 70
192
 0
VERTEX
 8
SPHERE
 10
83.6516
 20
-22.4144
 30
-50
 70
192
 0
VERTEX
 8
SPHERE
 10
96.5926
 20
0
 30
-25.8819
 70
192
 0
VERTEX
 8
SPHERE
 10
93.3013
 20
25
 30
-25.8819
 70
192
 0
VERTEX
 8
SPHERE
 10
83.6516
 20
48.2963
 30
-25.8819
 70
192
 0
VERTEX
 8
SPHERE
 10
68.3013
 20
68.3013
 30
-25.8819
 70
192
 0
VERTEX
 8
SPHERE
 10
48.2963
 20
83.6516
 30
-25.8819
 70
192
 0
VERTEX
 8
SPHERE
 10
25
 20
93.3013
 30
-25.8819
 70
192
 0
VERTEX
 8
SPHERE
 10
0
 20
96.5926
 30
-25.8819
 70
192
 0
VERTEX
 8
SPHERE
 10
-25
 20
93.3013
 30
-25.8819
 70
192
 0
VERTEX
 8
SPHERE
 10
-48.2963
 20
83.6516
 30
-25.8819
 70
192
 0
VERTEX
 8
SPHERE
 10
-68.3013
 20
68.3013
 30
-25.8819
 70
192
 0
VERTEX
 8
SPHERE
 10
-83.6516
 20
48.2963
 30
-25.8819
 70
192
 0
VERTEX
 8
SPHERE
 10
-93.3013
 20
25
 30
-25.8819
 70
192
 0
VERTEX
 8
SPHERE
 10
-96.5926
 20
0
 30
-25.8819
 70
192
 0
VERTEX
 8
SPHERE
 10
-93.3013
 20
-25
 30
-25.8819
 70
192
 0
VERTEX
 8
SPHERE
 10
-83.6516
 20
-48.2963
 30
-25.8819
 70
192
 0
VERTEX
 8
SPHERE
 10
-68.3013
 20
-68.3013
 30
-25.8819
 70
192
 0
VERTEX
 8
SPHERE
 10
-48.2963
 20
-83.6516
 30
-25.8819
 70
192
 0
VERTEX
 8
SPHERE
 10
-25
 20
-93.3013
 30
-25.8819
 70
192
 0
VERTEX
 8
SPHERE
 10
0
 20
-96.5926
 30
-25.8819
 70
192
 0
VERTEX
 8
SPHERE
 10
25
 20
-93.3013
 30
-25.8819
 70
192
 0
VERTEX
 8
SPHERE
 10
48.2963
 20
-83.6516
 30
-25.8819
 70
192
 0
VERTEX
 8
SPHERE
 10
68.3013
 20
-68.3013
 30
-25.8819
 70
192
 0
VERTEX
 8
SPHERE
 10
83.6516
 20
-48.2963
 30
-25.8819
 70
192
 0
VERTEX
 8
SPHERE
 10
93.3013
 20
-25
 30
-25.8819
 70
192
 0
VERTEX
 8
SPHERE
 10
100
 20
0
 30
0
 70
192
 0
VERTEX
 8
SPHERE
 10
96.5926
 20
25.8819
 30
0
 70
192
 0
VERTEX
 8
SPHERE
 10
86.6025
 20
50
 30
0
 70
192
 0
VERTEX
 8
SPHERE
 10
70.7107
 20
70.7107
 30
0
 70
192
 0
VERTEX
 8
SPHERE
 10
50
 20
86.6025
 30
0
 70
192
 0
VERTEX
 8
SPHERE
 10
25.8819
 20
96.5926
 30
0
 70
192
 0
VERTEX
 8
SPHERE
 10
0
 20
100
 30
0
 70
192
 0
VERTEX
 8
SPHERE
 10
-25.8819
 20
96.5926
 30
0
 70
192
 0
VERTEX
 8
SPHERE
 10
-50
 20
86.6025
 30
0
 70
192
 0
VERTEX
 8
SPHERE
 10
-70.7107
 20
70.7107
 30
0
 70
192
 0
VERTEX
 8
SPHERE
 10
-86.6025
 20
50
 30
0
 70
192
 0
VERTEX
 8
SPHERE
 10
-96.5926
 20
25.8819
 30
0
 70
192
 0
VERTEX
 8
SPHERE
 10
-100
 20
0
 30
0
 70
192
 0
VERTEX
 8
SPHERE
 10
-96.5926
 20
-25.8819
 30
0
 70
192
 0
VERTEX
 8
SPHERE
 10
-86.6025
 20
-50
 30
0
 70
192
 0
VERTEX
 8
SPHERE
 10
-70.7107
 20
-70.7107
 30
0
 70
192
 0
VERTEX
 8
SPHERE
 10
-50
 20
-86.6025
 30
0
 70
192
 0
VERTEX
 8
SPHERE
 10
-25.8819
 20
-96.5926
 30
0
 70
192
 0
VERTEX
 8
SPHERE
 10
0
 20
-100
 30
0
 70
192
 0
VERTEX
 8
SPHERE
 10
25.8819
 20
-96.5926
 30
0
 70
192
 0
VERTEX
 8
SPHERE
 10
50
 20
-86.6025
 30
0
 70
192
 0
VERTEX
 8
SPHERE
 10
70.7107
 20
-70.7107
 30
0
 70
192
 0
VERTEX
 8
SPHERE
 10
86.6025
 20
-50
 30
0
 70
192
 0
VERTEX
 8
SPHERE
 10
96.5926
 20
-25.8819
 30
0
 70
192
 0
VERTEX
 8
SPHERE
 10
96.5926
 20
0
 30
25.8819
 70
192
 0
VERTEX
 8
SPHERE
 10
93.3013
 20
25
 30
25.8819
 70
192
 0
VERTEX
 8
SPHERE
 10
83.6516
 20
48.2963
 30
25.8819
 70
192
 0
VERTEX
 8
SPHERE
 10
68.3013
 20
68.3013
 30
25.8819
 70
192
 0
VERTEX
 8
SPHERE
 10
48.2963
 20
83.6516
 30
25.8819
 70
192
 0
VERTEX
 8
SPHERE
 10
25
 20
93.3013
 30
25.8819
 70
192
 0
VERTEX
 8
SPHERE
 10
0
 20
96.5926
 30
25.8819
 70
192
 0
VERTEX
 8
SPHERE
 10
-25
 20
93.3013
 30
25.8819
 70
192
 0
VERTEX
 8
SPHERE
 10
-48.2963
 20
83.6516
 30
25.8819
 70
192
 0
VERTEX
 8
SPHERE
 10
-68.3013
 20
68.3013
 30
25.8819
 70
192
 0
VERTEX
 8
SPHERE
 10
-83.6516
 20
48.2963
 30
25.8819
 70
192
 0
VERTEX
 8
SPHERE
 10
-93.3013
 20
25
 30
25.8819
 70
192
 0
VERTEX
 8
SPHERE
 10
-96.5926
 20
0
 30
25.8819
 70
192
 0
VERTEX
 8
SPHERE
 10
-93.3013
 20
-25
 30
25.8819
 70
192
 0
VERTEX
 8
SPHERE
 10
-83.6516
 20
-48.2963
 30
25.8819
 70
192
 0
VERTEX
 8
SPHERE
 10
-68.3013
 20
-68.3013
 30
25.8819
 70
192
 0
VERTEX
 8
SPHERE
 10
-48.2963
 20
-83.6516
 30
25.8819
 70
192
 0
VERTEX
 8
SPHERE
 10
-25
 20
-93.3013
 30
25.8819
 70
192
 0
VERTEX
 8
SPHERE
 10
0
 20
-96.5926
 30
25.8819
 70
192
 0
VERTEX
 8
SPHERE
 10
25
 20
-93.3013
 30
25.8819
 70
192
 0
VERTEX
 8
SPHERE
 10
48.2963
 20
-83.6516
 30
25.8819
 70
192
 0
VERTEX
 8
SPHERE
 10
68.3013
 20
-68.3013
 30
25.8819
 70
192
 0
VERTEX
 8
SPHERE
 10
83.6516
 20
-48.2963
 30
25.8819
 70
192
 0
VERTEX
 8
SPHERE
 10
93.3013
 20
-25
 30
25.8819
 70
192
 0
VERTEX
 8
SPHERE
 10
86.6025
 20
0
 30
50
 70
192
 0
VERTEX
 8
SPHERE
 10
83.6516
 20
22.4144
 30
50
 70
192
 0
VERTEX
 8
SPHERE
 10
75
 20
43.3013
 30
50
 70
192
 0
VERTEX
 8
SPHERE
 10
61.2372
 20
61.2372
 30
50
 70
192
 0
VERTEX
 8
SPHERE
 10
43.3013
 20
75
 30
50
 70
192
 0
VERTEX
 8
SPHERE
 10
22.4144
 20
83.6516
 30
50
 70
192
 0
VERTEX
 8
SPHERE
 10
0
 20
86.6025
 30
50
 70
192
 0
VERTEX
 8
SPHERE
 10
-22.4144
 20
83.6516
 30
50
 70
192
 0
VERTEX
 8
SPHERE
 10
-43.3013
 20
75
 30
50
 70
192
 0
VERTEX
 8
SPHERE
 10
-61.2372
 20
61.2372
 30
50
 70
192
 0
VERTEX
 8
SPHERE
 10
-75
 20
43.3013
 30
50
 70
192
 0
VERTEX
 8
SPHERE
 10
-83.6516
 20
22.4144
 30
50
 70
192
 0
VERTEX
 8
SPHERE
 10
-86.6025
 20
0
 30
50
 70
192
 0
VERTEX
 8
SPHERE
 10
-83.6516
 20
-22.4144
 30
50
 70
192
 0
VERTEX
 8
SPHERE
 10
-75
 20
-43.3013
 30
50
 70
192
 0
VERTEX
 8
SPHERE
 10
-61.2372
 20
-61.2372
 30
50
 70
192
 0
VERTEX
 8
SPHERE
 10
-43.3013
 20
-75
 30
50
 70
192
 0
VERTEX
 8
SPHERE
 10
-22.4144
 20
-83.6516
 30
50
 70
192
 0
VERTEX
 8
SPHERE
 10
0
 20
-86.6025
 30
50
 70
192
 0
VERTEX
 8
SPHERE
 10
22.4144
 20
-83.6516
 30
50
 70
192
 0
VERTEX
 8
SPHERE
 10
43.3013
 20
-75
 30
50
 70
192
 0
VERTEX
 8
SPHERE
 10
61.2372
 20
-61.2372
 30
50
 70
192
 0
VERTEX
 8
SPHERE
 10
75
 20
-43.3013
 30
50
 70
192
 0
VERTEX
 8
SPHERE
 10
83.6516
 20
-22.4144
 30
50
 70
192
 0
VERTEX
 8
SPHERE
 10
70.7107
 20
0
 30
70.7107
 70
192
 0
VERTEX
 8
SPHERE
 10
68.3013
 20
18.3013
 30
70.7107
 70
192
 0
VERTEX
 8
SPHERE
 10
61.2372
 20
35.3553
 30
70.7107
 70
192
 0
VERTEX
 8
SPHERE
 10
50
 20
50
 30
70.7107
 70
192
 0
VERTEX
 8
SPHERE
 10
35.3553
 20
61.2372
 30
70.7107
 70
192
 0
VERTEX
 8
SPHERE
 10
18.3013
 20
68.3013
 30
70.7107
 70
192
 0
VERTEX
 8
SPHERE
 10
0
 20
70.7107
 30
70.7107
 70
192
 0
VERTEX
 8
SPHERE
 10
-18.3013
 20
68.3013
 30
70.7107
 70
192
 0
VERTEX
 8
SPHERE
 10
-35.3553
 20
61.2372
 30
70.7107
 70
192
 0
VERTEX
 8
SPHERE
 10
-50
 20
50
 30
70.7107
 70
192
 0
VERTEX
 8
SPHERE
 10
-61.2372
 20
35.3553
 30
70.7107
 70
192
 0
VERTEX
 8
SPHERE
 10
-68.3013
 20
18.3013
 30
70.7107
 70
192
 0
VERTEX
 8
SPHERE
 10
-70.7107
 20
0
 30
70.7107
 70
192
 0
VERTEX
 8
SPHERE
 10
-68.3013
 20
-18.3013
 30
70.7107
 70
192
 0
VERTEX
 8
SPHERE
 10
-61.2372
 20
-35.3553
 30
70.7107
 70
192
 0
VERTEX
 8
SPHERE
 10
-50
 20
-50
 30
70.7107
 70
192
 0
VERTEX
 8
SPHERE
 10
-35.3553
 20
-61.2372
 30
70.7107
 70
192
 0
VERTEX
 8
SPHERE
 10
-18.3013
 20
-68.3013
 30
70.7107
 70
192
 0
VERTEX
 8
SPHERE
 10
0
 20
-70.7107
 30
70.7107
 70
192
 0
VERTEX
 8
SPHERE
 10
18.3013
 20
-68.3013
 30
70.7107
 70
192
 0
VERTEX
 8
SPHERE
 10
35.3553
 20
-61.2372
 30
70.7107
 70
192
 0
VERTEX
 8
SPHERE
 10
50
 20
-50
 30
70.7107
 70
192
 0
VERTEX
 8
SPHERE
 10
61.2372
 20
-35.3553
 30
70.7107
 70
192
 0
VERTEX
 8
SPHERE
 10
68.3013
 20
-18.3013
 30
70.7107
 70
192
 0
VERTEX
 8
SPHERE
 10
50
 20
0
 30
86.6025
 70
192
 0
VERTEX
 8
SPHERE
 10
48.2963
 20
12.941
 30
86.6025
 70
192
 0
VERTEX
 8
SPHERE
 10
43.3013
 20
25
 30
86.6025
 70
192
 0
VERTEX
 8
SPHERE
 10
35.3553
 20
35.3553
 30
86.6025
 70
192
 0
VERTEX
 8
SPHERE
 10
25
 20
43.3013
 30
86.6025
 70
192
 0
VERTEX
 8
SPHERE
 10
12.941
 20
48.2963
 30
86.6025
 70
192
 0
VERTEX
 8
SPHERE
 10
0
 20
50
 30
86.6025
 70
192
 0
VERTEX
 8
SPHERE
 10
-12.941
 20
48.2963
 30
86.6025
 70
192
 0
VERTEX
 8
SPHERE
 10
-25
 20
43.3013
 30
86.6025
 70
192
 0
VERTEX
 8
SPHERE
 10
-35.3553
 20
35.3553
 30
86.6025
 70
192
 0
VERTEX
 8
SPHERE
 10
-43.3013
 20
25
 30
86.6025
 70
192
 0
VERTEX
 8
SPHERE
 10
-48.2963
 20
12.941
 30
86.6025
 70
192
 0
VERTEX
 8
SPHERE
 10
-50
 20
0
 30
86.6025
 70
192
 0
VERTEX
 8
SPHERE
 10
-48.2963
 20
-12.941
 30
86.6025
 70
192
 0
VERTEX
 8
SPHERE
 10
-43.3013
 20
-25
 30
86.6025
 70
192
 0
VERTEX
 8
SPHERE
 10
-35.3553
 20
-35.3553
 30
86.6025
 70
192
 0
VERTEX
 8
SPHERE
 10
-25
 20
-43.3013
 30
86.6025
 70
192
 0
VERTEX
 8
SPHERE
 10
-12.941
 20
-48.2963
 30
86.6025
 70
192
 0
VERTEX
 8
SPHERE
 10
0
 20
-50
 30
86.6025
 70
192
 0
VERTEX
 8
SPHERE
 10
12.941
 20
-48.2963
 30
86.6025
 70
192
 0
VERTEX
 8
SPHERE
 10
25
 20
-43.3013
 30
86.6025
 70
192
 0
VERTEX
 8
SPHERE
 10
35.3553
 20
-35.3553
 30
86.6025
 70
192
 0
VERTEX
 8
SPHERE
 10
43.3013
 20
-25
 30
86.6025
 70
192
 0
VERTEX
 8
SPHERE
 10
48.2963
 20
-12.941
 30
86.6025
 70
192
 0
VERTEX
 8
SPHERE
 10
25.8819
 20
0
 30
96.5926
 70
192
 0
VERTEX
 8
SPHERE
 10
25
 20
6.6987
 30
96.5926
 70
192
 0
VERTEX
 8
SPHERE
 10
22.4144
 20
12.941
 30
96.5926
 70
192
 0
VERTEX
 8
SPHERE
 10
18.3013
 20
18.3013
 30
96.5926
 70
192
 0
VERTEX
 8
SPHERE
 10
12.941
 20
22.4144
 30
96.5926
 70
192
 0
VERTEX
 8
SPHERE
 10
6.6987
 20
25
 30
96.5926
 70
192
 0
VERTEX
 8
SPHERE
 10
0
 20
25.8819
 30
96.5926
 70
192
 0
VERTEX
 8
SPHERE
 10
-6.6987
 20
25
 30
96.5926
 70
192
 0
VERTEX
 8
SPHERE
 10
-12.941
 20
22.4144
 30
96.5926
 70
192
 0
VERTEX
 8
SPHERE
 10
-18.3013
 20
18.3013
 30
96.5926
 70
192
 0
VERTEX
 8
SPHERE
 10
-22.4144
 20
12.941
 30
96.5926
 70
192
 0
VERTEX
 8
SPHERE
 10
-25
 20
6.6987
 30
96.5926
 70
192
 0
VERTEX
 8
SPHERE
 10
-25.8819
 20
0
 30
96.5926
 70
192
 0
VERTEX
 8
SPHERE
 10
-25
 20
-6.6987
 30
96.5926
 70
192
 0
VERTEX
 8
SPHERE
 10
-22.4144
 20
-12.941
 30
96.5926
 70
192
 0
VERTEX
 8
SPHERE
 10
-18.3013
 20
-18.3013
 30
96.5926
 70
192
 0
VERTEX
 8
SPHERE
 10
-12.941
 20
-22.4144
 30
96.5926
 70
192
 0
VERTEX
 8
SPHERE
 10
-6.6987
 20
-25
 30
96.5926
 70
192
 0
VERTEX
 8
SPHERE
 10
0
 20
-25.8819
 30
96.5926
 70
192
 0
VERTEX
 8
SPHERE
 10
6.6987
 20
-25
 30
96.5926
 70
192
 0
VERTEX
 8
SPHERE
 10
12.941
 20
-22.4144
 30
96.5926
 70
192
 0
VERTEX
 8
SPHERE
 10
18.3013
 20
-18.3013
 30
96.5926
 70
192
 0
VERTEX
 8
SPHERE
 10
22.4144
 20
-12.941
 30
96.5926
 70
192
 0
VERTEX
 8
SPHERE
 10
25
 20
-6.6987
 30
96.5926
 70
192
 0
VERTEX
 8
SPHERE
 10
0
 20
0
 30
0
 70
128
 71
3
 72
27
 73
28
 74
4
 0
VERTEX
 8
SPHERE
 10
0
 20
0
 30
0
 70
128
 71
4
 72
28
 73
29
 74
5
 0
VERTEX
 8
SPHERE
 10
0
 20
0
 30
0
 70
128
 71
5
 72
29
 73
30
 74
6
 0
VERTEX
 8
SPHERE
 10
0
 20
0
 30
0
 70
128
 71
6
 72
30
 73
31
 74
7
 0
VERTEX
 8
SPHERE
 10
0
 20
0
 30
0
 70
128
 71
7
 72
31
 73
32
 74
8
 0
VERTEX
 8
SPHERE
 10
0
 20
0
 30
0
 70
128
 71
8
 72
32
 73
33
 74
9
 0
VERTEX
 8
SPHERE
 10
0
 20
0
 30
0
 70
128
 71
9
 72
33
 73
34
 74
10
 0
VERTEX
 8
SPHERE
 10
0
 20
0
 30
0
 70
128
 71
10
 72
34
 73
35
 74
11
 0
VERTEX
 8
SPHERE
 10
0
 20
0
 30
0
 70
128
 71
11
 72
35
 73
36
 74
12
 0
VERTEX
 8
SPHERE
 10
0
 20
0
 30
0
 70
128
 71
12
 72
36
 73
37
 74
13
 0
VERTEX
 8
SPHERE
 10
0
 20
0
 30
0
 70
128
 71
13
 72
37
 73
38
 74
14
 0
VERTEX
 8
SPHERE
 10
0
 20
0
 30
0
 70
128
 71
14
 72
38
 73
39
 74
15
 0
VERTEX
 8
SPHERE
 10
0
 20
0
 30
0
 70
128
 71
15
 72
39
 73
40
 74
16
 0
VERTEX
 8
SPHERE
 10
0
 20
0
 30
0
 70
128
 71
16
 72
40
 73
41
 74
17
 0
VERTEX
 8
SPHERE
 10
0
 20
0
 30
0
 70
128
 71
17
 72
41
 73
42
 74
18
 0
VERTEX
 8
SPHERE
 10
0
 20
0
 30
0
 70
128
 71
18
 72
42
 73
43
 74
19
 0
VERTEX
 8
SPHERE
 10
0
 20
0
 30
0
 70
128
 71
19
 72
43
 73
44
 74
20
 0
VERTEX
 8
SPHERE
 10
0
 20
0
 30
0
 70
128
 71
20
 72
44
 73
45
 74
21
 0
VERTEX
 8
SPHERE
 10
0
 20
0
 30
0
 70
128
 71
21
 72
45
 73
46
 74
22
 0
VERTEX
 8
SPHERE
 10
0
 20
0
 30
0
 70
128
 71
22
 72
46
 73
47
 74
23
 0
VERTEX
 8
SPHERE
 10
0
 20
0
 30
0
 70
128
 71
23
 72
47
 73
48
 74
24
 0
VERTEX
 8
SPHERE
 10
0
 20
0
 30
0
 70
128
 71
24
 72
48
 73
49
 74
25
 0
VERTEX
 8
SPHERE
 10
0
 20
0
 30
0
 70
128
 71
25
 72
49
 73
50
 74
26
 0
VERTEX
 8
SPHERE
 10
0
 20
0
 30
0
 70
128
 71
26
 72
50
 73
27
 74
3
 0
VERTEX
 8
SPHERE
 10
0
 20
0
 30
0
 70
128
 71
27
 72
51
 73
52
 74
28
 0
VERTEX
 8
SPHERE
 10
0
 20
0
 30
0
 70
128
 71
28
 72
52
 73
53
 74
29
 0
VERTEX
 8
SPHERE
 10
0
 20
0
 30
0
 70
128
 71
29
 72
53
 73
54
 74
30
 0
VERTEX
 8
SPHERE
 10
0
 20
0
 30
0
 70
128
 71
30
 72
54
 73
55
 74
31
 0
VERTEX
 8
SPHERE
 10
0
 20
0
 30
0
 70
128
 71
31
 72
55
 73
56
 74
32
 0
VERTEX
 8
SPHERE
 10
0
 20
0
 30
0
 70
128
 71
32
 72
56
 73
57
 74
33
 0
VERTEX
 8
SPHERE
 10
0
 20
0
 30
0
 70
128
 71
33
 72
57
 73
58
 74
34
 0
VERTEX
 8
SPHERE
 10
0
 20
0
 30
0
 70
128
 71
34
 72
58
 73
59
 74
35
 0
VERTEX
 8
SPHERE
 10
0
 20
0
 30
0
 70
128
 71
35
 72
59
 73
60
 74
36
 0
VERTEX
 8
SPHERE
 10
0
 20
0
 30
0
 70
128
 71
36
 72
60
 73
61
 74
37
 0
VERTEX
 8
SPHERE
 10
0
 20
0
 30
0
 70
128
 71
37
 72
61
 73
62
 74
38
 0
VERTEX
 8
SPHERE
 10
0
 20
0
 30
0
 70
128
 71
38
 72
62
 73
63
 74
39
 0
VERTEX
 8
SPHERE
 10
0
 20
0
 30
0
 70
128
 71
39
 72
63
 73
64
 74
40
 0
VERTEX
 8
SPHERE
 10
0
 20
0
 30
0
 70
128
 71
40
 72
64
 73
65
 74
41
 0
VERTEX
 8
SPHERE
 10
0
 20
0
 30
0
 70
128
 71
41
 72
65
 73
66
 74
42
 0
VERTEX
 8
SPHERE
 10
0
 20
0
 30
0
 70
128
 71
42
 72
66
 73
67
 74
43
 0
VERTEX
 8
SPHERE
 10
0
 20
0
 30
0
 70
128
 71
43
 72
67
 73
68
 74
44
 0
VERTEX
 8
SPHERE
 10
0
 20
0
 30
0
 70
128
 71
44
 72
68
 73
69
 74
45
 0
VERTEX
 8
SPHERE
 10
0
 20
0
 30
0
 70
128
 71
45
 72
69
 73
70
 74
46
 0
VERTEX
 8
SPHERE
 10
0
 20
0
 30
0
 70
128
 71
46
 72
70
 73
71
 74
47
 0
VERTEX
 8
SPHERE
 10
0
 20
0
 30
0
 70
128
 71
47
 72
71
 73
72
 74
48
 0
VERTEX
 8
SPHERE
 10
0
 20
0
 30
0
 70
128
 71
48
 72
72
 73
73
 74
49
 0
VERTEX
 8
SPHERE
 10
0
 20
0
 30
0
 70
128
 71
49
 72
73
 73
74
 74
50
 0
VERTEX
 8
SPHERE
 10
0
 20
0
 30
0
 70
128
 71
50
 72
74
 73
51
 74
27
 0
VERTEX
 8
SPHERE
 10
0
 20
0
 30
0
 70
128
 71
51
 72
75
 73
76
 74
52
 0
VERTEX
 8
SPHERE
 10
0
 20
0
 30
0
 70
128
 71
52
 72
76
 73
77
 74
53
 0
VERTEX
 8
SPHERE
 10
0
 20
0
 30
0
 70
128
 71
53
 72
77
 73
78
 74
54
 0
VERTEX
 8
SPHERE
 10
0
 20
0
 30
0
 70
128
 71
54
 72
78
 73
79
 74
55
 0
VERTEX
 8
SPHERE
 10
0
 20
0
 30
0
 70
128
 71
55
 72
79
 73
80
 74
56
 0
VERTEX
 8
SPHERE
 10
0
 20
0
 30
0
 70
128
 71
56
 72
80
 73
81
 74
57
 0
VERTEX
 8
SPHERE
 10
0
 20
0
 30
0
 70
128
 71
57
 72
81
 73
82
 74
58
 0
VERTEX
 8
SPHERE
 10
0
 20
0
 30
0
 70
128
 71
58
 72
82
 73
83
 74
59
 0
VERTEX
 8
SPHERE
 10
0
 20
0
 30
0
 70
128
 71
59
 72
83
 73
84
 74
60
 0
VERTEX
 8
SPHERE
 10
0
 20
0
 30
0
 70
128
 71
60
 72
84
 73
85
 74
61
 0
VERTEX
 8
SPHERE
 10
0
 20
0
 30
0
 70
128
 71
61
 72
85
 73
86
 74
62
 0
VERTEX
 8
SPHERE
 10
0
 20
0
 30
0
 70
128
 71
62
 72
86
 73
87
 74
63
 0
VERTEX
 8
SPHERE
 10
0
 20
0
 30
0
 70
128
 71
63
 72
87
 73
88
 74
64
 0
VERTEX
 8
SPHERE
 10
0
 20
0
 30
0
 70
128
 71
64
 72
88
 73
89
 74
65
 0
VERTEX
 8
SPHERE
 10
0
 20
0
 30
0
 70
128
 71
65
 72
89
 73
90
 74
66
 0
VERTEX
 8
SPHERE
 10
0
 20
0
 30
0
 70
128
 71
66
 72
90
 73
91
 74
67
 0
VERTEX
 8
SPHERE
 10
0
 20
0
 30
0
 70
128
 71
67
 72
91
 73
92
 74
68
 0
VERTEX
 8
SPHERE
 10
0
 20
0
 30
0
 70
128
 71
68
 72
92
 73
93
 74
69
 0
VERTEX
 8
SPHERE
 10
0
 20
0
 30
0
 70
128
 71
69
 72
93
 73
94
 74
70
 0
VERTEX
 8
SPHERE
 10
0
 20
0
 30
0
 70
128
 71
70
 72
94
 73
95
 74
71
 0
VERTEX
 8
SPHERE
 10
0
 20
0
 30
0
 70
128
 71
71
 72
95
 73
96
 74
72
 0
VERTEX
 8
SPHERE
 10
0
 20
0
 30
0
 70
128
 71
72
 72
96
 73
97
 74
73
 0
VERTEX
 8
SPHERE
 10
0
 20
0
 30
0
 70
128
 71
73
 72
97
 73
98
 74
74
 0
VERTEX
 8
SPHERE
 10
0
 20
0
 30
0
 70
128
 71
74
 72
98
 73
75
 74
51
 0
VERTEX
 8
SPHERE
 10
0
 20
0
 30
0
 70
128
 71
75
 72
99
 73
100
 74
76
 0
VERTEX
 8
SPHERE
 10
0
 20
0
 30
0
 70
128
 71
76
 72
100
 73
101
 74
77
 0
VERTEX
 8
SPHERE
 10
0
 20
0
 30
0
 70
128
 71
77
 72
101
 73
102
 74
78
 0
VERTEX
 8
SPHERE
 10
0
 20
0
 30
0
 70
128
 71
78
 72
102
 73
103
 74
79
 0
VERTEX
 8
SPHERE
 10
0
 20
0
 30
0
 70
128
 71
79
 72
103
 73
104
 74
80
 0
VERTEX
 8
SPHERE
 10
0
 20
0
 30
0
 70
128
 71
80
 72
104
 73
105
 74
81
 0
VERTEX
 8
SPHERE
 10
0
 20
0
 30
0
 70
128
 71
81
 72
105
 73
106
 74
82
 0
VERTEX
 8
SPHERE
 10
0
 20
0
 30
0
 70
128
 71
82
 72
106
 73
107
 74
83
 0
VERTEX
 8
SPHERE
 10
0
 20
0
 30
0
 70
128
 71
83
 72
107
 73
108
 74
84
 0
VERTEX
 8
SPHERE
 10
0
 20
0
 30
0
 70
128
 71
84
 72
108
 73
109
 74
85
 0
VERTEX
 8
SPHERE
 10
0
 20
0
 30
0
 70
128
 71
85
 72
109
 73
110
 74
86
 0
VERTEX
 8
SPHERE
 10
0
 20
0
 30
0
 70
128
 71
86
 72
110
 73
111
 74
87
 0
VERTEX
 8
SPHERE
 10
0
 20
0
 30
0
 70
128
 71
87
 72
111
 73
112
 74
88
 0
VERTEX
 8
SPHERE
 10
0
 20
0
 30
0
 70
128
 71
88
 72
112
 73
113
 74
89
 0
VERTEX
 8
SPHERE
 10
0
 20
0
 30
0
 70
128
 71
89
 72
113
 73
114
 74
90
 0
VERTEX
 8
SPHERE
 10
0
 20
0
 30
0
 70
128
 71
90
 72
114
 73
115
 74
91
 0
VERTEX
 8
SPHERE
 10
0
 20
0
 30
0
 70
128
 71
91
 72
115
 73
116
 74
92
 0
VERTEX
 8
SPHERE
 10
0
 20
0
 30
0
 70
128
 71
92
 72
116
 73
117
 74
93
 0
VERTEX
 8
SPHERE
 10
0
 20
0
 30
0
 70
128
 71
93
 72
117
 73
118
 74
94
 0
VERTEX
 8
SPHERE
 10
0
 20
0
 30
0
 70
128
 71
94
 72
118
 73
119
 74
95
 0
VERTEX
 8
SPHERE
 10
0
 20
0
 30
0
 70
128
 71
95
 72
119
 73
120
 74
96
 0
VERTEX
 8
SPHERE
 10
0
 20
0
 30
0
 70
128
 71
96
 72
120
 73
121
 74
97
 0
VERTEX
 8
SPHERE
 10
0
 20
0
 30
0
 70
128
 71
97
 72
121
 73
122
 74
98
 0
VERTEX
 8
SPHERE
 10
0
 20
0
 30
0
 70
128
 71
98
 72
122
 73
99
 74
75
 0
VERTEX
 8
SPHERE
 10
0
 20
0
 30
0
 70
128
 71
99
 72
123
 73
124
 74
100
 0
VERTEX
 8
SPHERE
 10
0
 20
0
 30
0
 70
128
 71
100
 72
124
 73
125
 74
101
 0
VERTEX
 8
SPHERE
 10
0
 20
0
 30
0
 70
128
 71
101
 72
125
 73
126
 74
102
 0
VERTEX
 8
SPHERE
 10
0
 20
0
 30
0
 70
128
 71
102
 72
126
 73
127
 74
103
 0
VERTEX
 8
SPHERE
 10
0
 20
0
 30
0
 70
128
 71
103
 72
127
 73
128
 74
104
 0
VERTEX
 8
SPHERE
 10
0
 20
0
 30
0
 70
128
 71
104
 72
128
 73
129
 74
105
 0
VERTEX
 8
SPHERE
 10
0
 20
0
 30
0
 70
128
 71
105
 72
129
 73
130
 74
106
 0
VERTEX
 8
SPHERE
 10
0
 20
0
 30
0
 70
128
 71
106
 72
130
 73
131
 74
107
 0
VERTEX
 8
SPHERE
 10
0
 20
0
 30
0
 70
128
 71
107
 72
131
 73
132
 74
108
 0
VERTEX
 8
SPHERE
 10
0
 20
0
 30
0
 70
128
 71
108
 72
132
 73
133
 74
109
 0
VERTEX
 8
SPHERE
 10
0
 20
0
 30
0
 70
128
 71
109
 72
133
 73
134
 74
110
 0
VERTEX
 8
SPHERE
 10
0
 20
0
 30
0
 70
128
 71
110
 72
134
 73
135
 74
111
 0
VERTEX
 8
SPHERE
 10
0
 20
0
 30
0
 70
128
 71
111
 72
135
 73
136
 74
112
 0
VERTEX
 8
SPHERE
 10
0
 20
0
 30
0
 70
128
 71
112
 72
136
 73
137
 74
113
 0
VERTEX
 8
SPHERE
 10
0
 20
0
 30
0
 70
128
 71
113
 72
137
 73
138
 74
114
 0
VERTEX
 8
SPHERE
 10
0
 20
0
 30
0
 70
128
 71
114
 72
138
 73
139
 74
115
 0
VERTEX
 8
SPHERE
 10
0
 20
0
 30
0
 70
128
 71
115
 72
139
 73
140
 74
116
 0
VERTEX
 8
SPHERE
 10
0
 20
0
 30
0
 70
128
 71
116
 72
140
 73
141
 74
117
 0
VERTEX
 8
SPHERE
 10
0
 20
0
 30
0
 70
128
 71
117
 72
141
 73
142
 74
118
 0
VERTEX
 8
SPHERE
 10
0
 20
0
 30
0
 70
128
 71
118
 72
142
 73
143
 74
119
 0
VERTEX
 8
SPHERE
 10
0
 20
0
 30
0
 70
128
 71
119
 72
143
 73
144
 74
120
 0
VERTEX
 8
SPHERE
 10
0
 20
0
 30
0
 70
128
 71
120
 72
144
 73
145
 74
121
 0
VERTEX
 8
SPHERE
 10
0
 20
0
 30
0
 70
128
 71
121
 72
145
 73
146
 74
122
 0
VERTEX
 8
SPHERE
 10
0
 20
0
 30
0
 70
128
 71
122
 72
146
 73
123
 74
99
 0
VERTEX
 8
SPHERE
 10
0
 20
0
 30
0
 70
128
 71
123
 72
147
 73
148
 74
124
 0
VERTEX
 8
SPHERE
 10
0
 20
0
 30
0
 70
128
 71
124
 72
148
 73
149
 74
125
 0
VERTEX
 8
SPHERE
 10
0
 20
0
 30
0
 70
128
 71
125
 72
149
 73
150
 74
126
 0
VERTEX
 8
SPHERE
 10
0
 20
0
 30
0
 70
128
 71
126
 72
150
 73
151
 74
127
 0
VERTEX
 8
SPHERE
 10
0
 20
0
 30
0
 70
128
 71
127
 72
151
 73
152
 74
128
 0
VERTEX
 8
SPHERE
 10
0
 20
0
 30
0
 70
128
 71
128
 72
152
 73
153
 74
129
 0
VERTEX
 8
SPHERE
 10
0
 20
0
 30
0
 70
128
 71
129
 72
153
 73
154
 74
130
 0
VERTEX
 8
SPHERE
 10
0
 20
0
 30
0
 70
128
 71
130
 72
154
 73
155
 74
131
 0
VERTEX
 8
SPHERE
 10
0
 20
0
 30
0
 70
128
 71
131
 72
155
 73
156
 74
132
 0
VERTEX
 8
SPHERE
 10
0
 20
0
 30
0
 70
128
 71
132
 72
156
 73
157
 74
133
 0
VERTEX
 8
SPHERE
 10
0
 20
0
 30
0
 70
128
 71
133
 72
157
 73
158
 74
134
 0
VERTEX
 8
SPHERE
 10
0
 20
0
 30
0
 70
128
 71
134
 72
158
 73
159
 74
135
 0
VERTEX
 8
SPHERE
 10
0
 20
0
 30
0
 70
128
 71
135
 72
159
 73
160
 74
136
 0
VERTEX
 8
SPHERE
 10
0
 20
0
 30
0
 70
128
 71
136
 72
160
 73
161
 74
137
 0
VERTEX
 8
SPHERE
 10
0
 20
0
 30
0
 70
128
 71
137
 72
161
 73
162
 74
138
 0
VERTEX
 8
SPHERE
 10
0
 20
0
 30
0
 70
128
 71
138
 72
162
 73
163
 74
139
 0
VERTEX
 8
SPHERE
 10
0
 20
0
 30
0
 70
128
 71
139
 72
163
 73
164
 74
140
 0
VERTEX
 8
SPHERE
 10
0
 20
0
 30
0
 70
128
 71
140
 72
164
 73
165
 74
141
 0
VERTEX
 8
SPHERE
 10
0
 20
0
 30
0
 70
128
 71
141
 72
165
 73
166
 74
142
 0
VERTEX
 8
SPHERE
 10
0
 20
0
 30
0
 70
128
 71
142
 72
166
 73
167
 74
143
 0
VERTEX
 8
SPHERE
 10
0
 20
0
 30
0
 70
128
 71
143
 72
167
 73
168
 74
144
 0
VERTEX
 8
SPHERE
 10
0
 20
0
 30
0
 70
128
 71
144
 72
168
 73
169
 74
145
 0
VERTEX
 8
SPHERE
 10
0
 20
0
 30
0
 70
128
 71
145
 72
169
 73
170
 74
146
 0
VERTEX
 8
SPHERE
 10
0
 20
0
 30
0
 70
128
 71
146
 72
170
 73
147
 74
123
 0
VERTEX
 8
SPHERE
 10
0
 20
0
 30
0
 70
128
 71
147
 72
171
 73
172
 74
148
 0
VERTEX
 8
SPHERE
 10
0
 20
0
 30
0
 70
128
 71
148
 72
172
 73
173
 74
149
 0
VERTEX
 8
SPHERE
 10
0
 20
0
 30
0
 70
128
 71
149
 72
173
 73
174
 74
150
 0
VERTEX
 8
SPHERE
 10
0
 20
0
 30
0
 70
128
 71
150
 72
174
 73
175
 74
151
 0
VERTEX
 8
SPHERE
 10
0
 20
0
 30
0
 70
128
 71
151
 72
175
 73
176
 74
152
 0
VERTEX
 8
SPHERE
 10
0
 20
0
 30
0
 70
128
 71
152
 72
176
 73
177
 74
153
 0
VERTEX
 8
SPHERE
 10
0
 20
0
 30
0
 70
128
 71
153
 72
177
 73
178
 74
154
 0
VERTEX
 8
SPHERE
 10
0
 20
0
 30
0
 70
128
 71
154
 72
178
 73
179
 74
155
 0
VERTEX
 8
SPHERE
 10
0
 20
0
 30
0
 70
128
 71
155
 72
179
 73
180
 74
156
 0
VERTEX
 8
SPHERE
 10
0
 20
0
 30
0
 70
128
 71
156
 72
180
 73
181
 74
157
 0
VERTEX
 8
SPHERE
 10
0
 20
0
 30
0
 70
128
 71
157
 72
181
 73
182
 74
158
 0
VERTEX
 8
SPHERE
 10
0
 20
0
 30
0
 70
128
 71
158
 72
182
 73
183
 74
159
 0
VERTEX
 8
SPHERE
 10
0
 20
0
 30
0
 70
128
 71
159
 72
183
 73
184
 74
160
 0
VERTEX
 8
SPHERE
 10
0
 20
0
 30
0
 70
128
 71
160
 72
184
 73
185
 74
161
 0
VERTEX
 8
SPHERE
 10
0
 20
0
 30
0
 70
128
 71
161
 72
185
 73
186
 74
162
 0
VERTEX
 8
SPHERE
 10
0
 20
0
 30
0
 70
128
 71
162
 72
186
 73
187
 74
163
 0
VERTEX
 8
SPHERE
 10
0
 20
0
 30
0
 70
128
 71
163
 72
187
 73
188
 74
164
 0
VERTEX
 8
SPHERE
 10
0
 20
0
 30
0
 70
128
 71
164
 72
188
 73
189
 74
165
 0
VERTEX
 8
SPHERE
 10
0
 20
0
 30
0
 70
128
 71
165
 72
189
 73
190
 74
166
 0
VERTEX
 8
SPHERE
 10
0
 20
0
 30
0
 70
128
 71
166
 72
190
 73
191
 74
167
 0
VERTEX
 8
SPHERE
 10
0
 20
0
 30
0
 70
128
 71
167
 72
191
 73
192
 74
168
 0
VERTEX
 8
SPHERE
 10
0
 20
0
 30
0
 70
128
 71
168
 72
192
 73
193
 74
169
 0
VERTEX
 8
SPHERE
 10
0
 20
0
 30
0
 70
128
 71
169
 72
193
 73
194
 74
170
 0
VERTEX
 8
SPHERE
 10
0
 20
0
 30
0
 70
128
 71
170
 72
194
 73
171
 74
147
 0
VERTEX
 8
SPHERE
 10
0
 20
0
 30
0
 70
128
 71
171
 72
195
 73
196
 74
172
 0
VERTEX
 8
SPHERE
 10
0
 20
0
 30
0
 70
128
 71
172
 72
196
 73
197
 74
173
 0
VERTEX
 8
SPHERE
 10
0
 20
0
 30
0
 70
128
 71
173
 72
197
 73
198
 74
174
 0
VERTEX
 8
SPHERE
 10
0
 20
0
 30
0
 70
128
 71
174
 72
198
 73
199
 74
175
 0
VERTEX
 8
SPHERE
 10
0
 20
0
 30
0
 70
128
 71
175
 72
199
 73
200
 74
176
 0
VERTEX
 8
SPHERE
 10
0
 20
0
 30
0
 70
128
 71
176
 72
200
 73
201
 74
177
 0
VERTEX
 8
SPHERE
 10
0
 20
0
 30
0
 70
128
 71
177
 72
201
 73
202
 74
178
 0
VERTEX
 8
SPHERE
 10
0
 20
0
 30
0
 70
128
 71
178
 72
202
 73
203
 74
179
 0
VERTEX
 8
SPHERE
 10
0
 20
0
 30
0
 70
128
 71
179
 72
203
 73
204
 74
180
 0
VERTEX
 8
SPHERE
 10
0
 20
0
 30
0
 70
128
 71
180
 72
204
 73
205
 74
181
 0
VERTEX
 8
SPHERE
 10
0
 20
0
 30
0
 70
128
 71
181
 72
205
 73
206
 74
182
 0
VERTEX
 8
SPHERE
 10
0
 20
0
 30
0
 70
128
 71
182
 72
206
 73
207
 74
183
 0
VERTEX
 8
SPHERE
 10
0
 20
0
 30
0
 70
128
 71
183
 72
207
 73
208
 74
184
 0
VERTEX
 8
SPHERE
 10
0
 20
0
 30
0
 70
128
 71
184
 72
208
 73
209
 74
185
 0
VERTEX
 8
SPHERE
 10
0
 20
0
 30
0
 70
128
 71
185
 72
209
 73
210
 74
186
 0
VERTEX
 8
SPHERE
 10
0
 20
0
 30
0
 70
128
 71
186
 72
210
 73
211
 74
187
 0
VERTEX
 8
SPHERE
 10
0
 20
0
 30
0
 70
128
 71
187
 72
211
 73
212
 74
188
 0
VERTEX
 8
SPHERE
 10
0
 20
0
 30
0
 70
128
 71
188
 72
212
 73
213
 74
189
 0
VERTEX
 8
SPHERE
 10
0
 20
0
 30
0
 70
128
 71
189
 72
213
 73
214
 74
190
 0
VERTEX
 8
SPHERE
 10
0
 20
0
 30
0
 70
128
 71
190
 72
214
 73
215
 74
191
 0
VERTEX
 8
SPHERE
 10
0
 20
0
 30
0
 70
128
 71
191
 72
215
 73
216
 74
192
 0
VERTEX
 8
SPHERE
 10
0
 20
0
 30
0
 70
128
 71
192
 72
216
 73
217
 74
193
 0
VERTEX
 8
SPHERE
 10
0
 20
0
 30
0
 70
128
 71
193
 72
217
 73
218
 74
194
 0
VERTEX
 8
SPHERE
 10
0
 20
0
 30
0
 70
128
 71
194
 72
218
 73
195
 74
171
 0
VERTEX
 8
SPHERE
 10
0
 20
0
 30
0
 70
128
 71
195
 72
219
 73
220
 74
196
 0
VERTEX
 8
SPHERE
 10
0
 20
0
 30
0
 70
128
 71
196
 72
220
 73
221
 74
197
 0
VERTEX
 8
SPHERE
 10
0
 20
0
 30
0
 70
128
 71
197
 72
221
 73
222
 74
198
 0
VERTEX
 8
SPHERE
 10
0
 20
0
 30
0
 70
128
 71
198
 72
222
 73
223
 74
199
 0
VERTEX
 8
SPHERE
 10
0
 20
0
 30
0
 70
128
 71
199
 72
223
 73
224
 74
200
 0
VERTEX
 8
SPHERE
 10
0
 20
0
 30
0
 70
128
 71
200
 72
224
 73
225
 74
201
 0
VERTEX
 8
SPHERE
 10
0
 20
0
 30
0
 70
128
 71
201
 72
225
 73
226
 74
202
 0
VERTEX
 8
SPHERE
 10
0
 20
0
 30
0
 70
128
 71
202
 72
226
 73
227
 74
203
 0
VERTEX
 8
SPHERE
 10
0
 20
0
 30
0
 70
128
 71
203
 72
227
 73
228
 74
204
 0
VERTEX
 8
SPHERE
 10
0
 20
0
 30
0
 70
128
 71
204
 72
228
 73
229
 74
205
 0
VERTEX
 8
SPHERE
 10
0
 20
0
 30
0
 70
128
 71
205
 72
229
 73
230
 74
206
 0
VERTEX
 8
SPHERE
 10
0
 20
0
 30
0
 70
128
 71
206
 72
230
 73
231
 74
207
 0
VERTEX
 8
SPHERE
 10
0
 20
0
 30
0
 70
128
 71
207
 72
231
 73
232
 74
208
 0
VERTEX
 8
SPHERE
 10
0
 20
0
 30
0
 70
128
 71
208
 72
232
 73
233
 74
209
 0
VERTEX
 8
SPHERE
 10
0
 20
0
 30
0
 70
128
 71
209
 72
233
 73
234
 74
210
 0
VERTEX
 8
SPHERE
 10
0
 20
0
 30
0
 70
128
 71
210
 72
234
 73
235
 74
211
 0
VERTEX
 8
SPHERE
 10
0
 20
0
 30
0
 70
128
 71
211
 72
235
 73
236
 74
212
 0
VERTEX
 8
SPHERE
 10
0
 20
0
 30
0
 70
128
 71
212
 72
236
 73
237
 74
213
 0
VERTEX
 8
SPHERE
 10
0
 20
0
 30
0
 70
128
 71
213
 72
237
 73
238
 74
214
 0
VERTEX
 8
SPHERE
 10
0
 20
0
 30
0
 70
128
 71
214
 72
238
 73
239
 74
215
 0
VERTEX
 8
SPHERE
 10
0
 20
0
 30
0
 70
128
 71
215
 72
239
 73
240
 74
216
 0
VERTEX
 8
SPHERE
 10
0
 20
0
 30
0
 70
128
 71
216
 72
240
 73
241
 74
217
 0
VERTEX
 8
SPHERE
 10
0
 20
0
 30
0
 70
128
 71
217
 72
241
 73
242
 74
218
 0
VERTEX
 8
SPHERE
 10
0
 20
0
 30
0
 70
128
 71
218
 72
242
 73
219
 74
195
 0
VERTEX
 8
SPHERE
 10
0
 20
0
 30
0
 70
128
 71
219
 72
243
 73
244
 74
220
 0
VERTEX
 8
SPHERE
 10
0
 20
0
 30
0
 70
128
 71
220
 72
244
 73
245
 74
221
 0
VERTEX
 8
SPHERE
 10
0
 20
0
 30
0
 70
128
 71
221
 72
245
 73
246
 74
222
 0
VERTEX
 8
SPHERE
 10
0
 20
0
 30
0
 70
128
 71
222
 72
246
 73
247
 74
223
 0
VERTEX
 8
SPHERE
 10
0
 20
0
 30
0
 70
128
 71
223
 72
247
 73
248
 74
224
 0
VERTEX
 8
SPHERE
 10
0
 20
0
 30
0
 70
128
 71
224
 72
248
 73
249
 74
225
 0
VERTEX
 8
SPHERE
 10
0
 20
0
 30
0
 70
128
 71
225
 72
249
 73
250
 74
226
 0
VERTEX
 8
SPHERE
 10
0
 20
0
 30
0
 70
128
 71
226
 72
250
 73
251
 74
227
 0
VERTEX
 8
SPHERE
 10
0
 20
0
 30
0
 70
128
 71
227
 72
251
 73
252
 74
228
 0
VERTEX
 8
SPHERE
 10
0
 20
0
 30
0
 70
128
 71
228
 72
252
 73
253
 74
229
 0
VERTEX
 8
SPHERE
 10
0
 20
0
 30
0
 70
128
 71
229
 72
253
 73
254
 74
230
 0
VERTEX
 8
SPHERE
 10
0
 20
0
 30
0
 70
128
 71
230
 72
254
 73
255
 74
231
 0
VERTEX
 8
SPHERE
 10
0
 20
0
 30
0
 70
128
 71
231
 72
255
 73
256
 74
232
 0
VERTEX
 8
SPHERE
 10
0
 20
0
 30
0
 70
128
 71
232
 72
256
 73
257
 74
233
 0
VERTEX
 8
SPHERE
 10
0
 20
0
 30
0
 70
128
 71
233
 72
257
 73
258
 74
234
 0
VERTEX
 8
SPHERE
 10
0
 20
0
 30
0
 70
128
 71
234
 72
258
 73
259
 74
235
 0
VERTEX
 8
SPHERE
 10
0
 20
0
 30
0
 70
128
 71
235
 72
259
 73
260
 74
236
 0
VERTEX
 8
SPHERE
 10
0
 20
0
 30
0
 70
128
 71
236
 72
260
 73
261
 74
237
 0
VERTEX
 8
SPHERE
 10
0
 20
0
 30
0
 70
128
 71
237
 72
261
 73
262
 74
238
 0
VERTEX
 8
SPHERE
 10
0
 20
0
 30
0
 70
128
 71
238
 72
262
 73
263
 74
239
 0
VERTEX
 8
SPHERE
 10
0
 20
0
 30
0
 70
128
 71
239
 72
263
 73
264
 74
240
 0
VERTEX
 8
SPHERE
 10
0
 20
0
 30
0
 70
128
 71
240
 72
264
 73
265
 74
241
 0
VERTEX
 8
SPHERE
 10
0
 20
0
 30
0
 70
128
 71
241
 72
265
 73
266
 74
242
 0
VERTEX
 8
SPHERE
 10
0
 20
0
 30
0
 70
128
 71
242
 72
266
 73
243
 74
219
 0
VERTEX
 8
SPHERE
 10
0
 20
0
 30
0
 70
128
 71
1
 72
3
 73
4
 74
4
 0
VERTEX
 8
SPHERE
 10
0
 20
0
 30
0
 70
128
 71
244
 72
243
 73
2
 74
2
 0
VERTEX
 8
SPHERE
 10
0
 20
0
 30
0
 70
128
 71
1
 72
4
 73
5
 74
5
 0
VERTEX
 8
SPHERE
 10
0
 20
0
 30
0
 70
128
 71
245
 72
244
 73
2
 74
2
 0
VERTEX
 8
SPHERE
 10
0
 20
0
 30
0
 70
128
 71
1
 72
5
 73
6
 74
6
 0
VERTEX
 8
SPHERE
 10
0
 20
0
 30
0
 70
128
 71
246
 72
245
 73
2
 74
2
 0
VERTEX
 8
SPHERE
 10
0
 20
0
 30
0
 70
128
 71
1
 72
6
 73
7
 74
7
 0
VERTEX
 8
SPHERE
 10
0
 20
0
 30
0
 70
128
 71
247
 72
246
 73
2
 74
2
 0
VERTEX
 8
SPHERE
 10
0
 20
0
 30
0
 70
128
 71
1
 72
7
 73
8
 74
8
 0
VERTEX
 8
SPHERE
 10
0
 20
0
 30
0
 70
128
 71
248
 72
247
 73
2
 74
2
 0
VERTEX
 8
SPHERE
 10
0
 20
0
 30
0
 70
128
 71
1
 72
8
 73
9
 74
9
 0
VERTEX
 8
SPHERE
 10
0
 20
0
 30
0
 70
128
 71
249
 72
248
 73
2
 74
2
 0
VERTEX
 8
SPHERE
 10
0
 20
0
 30
0
 70
128
 71
1
 72
9
 73
10
 74
10
 0
VERTEX
 8
SPHERE
 10
0
 20
0
 30
0
 70
128
 71
250
 72
249
 73
2
 74
2
 0
VERTEX
 8
SPHERE
 10
0
 20
0
 30
0
 70
128
 71
1
 72
10
 73
11
 74
11
 0
VERTEX
 8
SPHERE
 10
0
 20
0
 30
0
 70
128
 71
251
 72
250
 73
2
 74
2
 0
VERTEX
 8
SPHERE
 10
0
 20
0
 30
0
 70
128
 71
1
 72
11
 73
12
 74
12
 0
VERTEX
 8
SPHERE
 10
0
 20
0
 30
0
 70
128
 71
252
 72
251
 73
2
 74
2
 0
VERTEX
 8
SPHERE
 10
0
 20
0
 30
0
 70
128
 71
1
 72
12
 73
13
 74
13
 0
VERTEX
 8
SPHERE
 10
0
 20
0
 30
0
 70
128
 71
253
 72
252
 73
2
 74
2
 0
VERTEX
 8
SPHERE
 10
0
 20
0
 30
0
 70
128
 71
1
 72
13
 73
14
 74
14
 0
VERTEX
 8
SPHERE
 10
0
 20
0
 30
0
 70
128
 71
254
 72
253
 73
2
 74
2
 0
VERTEX
 8
SPHERE
 10
0
 20
0
 30
0
 70
128
 71
1
 72
14
 73
15
 74
15
 0
VERTEX
 8
SPHERE
 10
0
 20
0
 30
0
 70
128
 71
255
 72
254
 73
2
 74
2
 0
VERTEX
 8
SPHERE
 10
0
 20
0
 30
0
 70
128
 71
1
 72
15
 73
16
 74
16
 0
VERTEX
 8
SPHERE
 10
0
 20
0
 30
0
 70
128
 71
256
 72
255
 73
2
 74
2
 0
VERTEX
 8
SPHERE
 10
0
 20
0
 30
0
 70
128
 71
1
 72
16
 73
17
 74
17
 0
VERTEX
 8
SPHERE
 10
0
 20
0
 30
0
 70
128
 71
257
 72
256
 73
2
 74
2
 0
VERTEX
 8
SPHERE
 10
0
 20
0
 30
0
 70
128
 71
1
 72
17
 73
18
 74
18
 0
VERTEX
 8
SPHERE
 10
0
 20
0
 30
0
 70
128
 71
258
 72
257
 73
2
 74
2
 0
VERTEX
 8
SPHERE
 10
0
 20
0
 30
0
 70
128
 71
1
 72
18
 73
19
 74
19
 0
VERTEX
 8
SPHERE
 10
0
 20
0
 30
0
 70
128
 71
259
 72
258
 73
2
 74
2
 0
VERTEX
 8
SPHERE
 10
0
 20
0
 30
0
 70
128
 71
1
 72
19
 73
20
 74
20
 0
VERTEX
 8
SPHERE
 10
0
 20
0
 30
0
 70
128
 71
260
 72
259
 73
2
 74
2
 0
VERTEX
 8
SPHERE
 10
0
 20
0
 30
0
 70
128
 71
1
 72
20
 73
21
 74
21
 0
VERTEX
 8
SPHERE
 10
0
 20
0
 30
0
 70
128
 71
261
 72
260
 73
2
 74
2
 0
VERTEX
 8
SPHERE
 10
0
 20
0
 30
0
 70
128
 71
1
 72
21
 73
22
 74
22
 0
VERTEX
 8
SPHERE
 10
0
 20
0
 30
0
 70
128
 71
262
 72
261
 73
2
 74
2
 0
VERTEX
 8
SPHERE
 10
0
 20
0
 30
0
 70
128
 71
1
 72
22
 73
23
 74
23
 0
VERTEX
 8
SPHERE
 10
0
 20
0
 30
0
 70
128
 71
263
 72
262
 73
2
 74
2
 0
VERTEX
 8
SPHERE
 10
0
 20
0
 30
0
 70
128
 71
1
 72
23
 73
24
 74
24
 0
VERTEX
 8
SPHERE
 10
0
 20
0
 30
0
 70
128
 71
264
 72
263
 73
2
 74
2
 0
VERTEX
 8
SPHERE
 10
0
 20
0
 30
0
 70
128
 71
1
 72
24
 73
25
 74
25
 0
VERTEX
 8
SPHERE
 10
0
 20
0
 30
0
 70
128
 71
265
 72
264
 73
2
 74
2
 0
VERTEX
 8
SPHERE
 10
0
 20
0
 30
0
 70
128
 71
1
 72
25
 73
26
 74
26
 0
VERTEX
 8
SPHERE
 10
0
 20
0
 30
0
 70
128
 71
266
 72
265
 73
2
 74
2
 0
VERTEX
 8
SPHERE
 10
0
 20
0
 30
0
 70
128
 71
1
 72
26
 73
3
 74
3
 0
VERTEX
 8
SPHERE
 10
0
 20
0
 30
0
 70
128
 71
243
 72
266
 73
2
 74
2
 0
SEQEND
 0
ENDSEC
 0
EOF