/* XPM */

#include <OSGConfig.h>
#include <OSGBaseTypes.h>

OSG_BEGIN_NAMESPACE

static const Char8 *XPMAddAfter[] = {
"12 15 5 1",
" 	c None",
".	c #00FF00",
"+	c #000000",
"@	c #808080",
"#	c #FF0000",
"            ",
"            ",
"     ..     ",
"     ..+@   ",
"     ..+@   ",
"     ..+@   ",
"............",
"............",
" ++++..+++++",
"  @@@..+@@@@",
"     ..+@#  ",
"     ..+@## ",
"     ..+ ###",
"         ##+",
"         #+@"};

OSG_END_NAMESPACE
