/* XPM */

#include <OSGConfig.h>
#include <OSGBaseTypes.h>

OSG_BEGIN_NAMESPACE

static const Char8 *XPMAddBefore[] = {
"7 6 3 1",
".	c None",
"+	c #FF0000",
"@	c #000000",
"....++.",
"..@.++.",
"..@....",
"@@@@@..",
"..@....",
"..@...."};

OSG_END_NAMESPACE

