/* XPM */
static const char *no_xpm[] = {
"13 15 5 1",
" 	c None",
".	c None",
"+	c #FF0000",
"@	c #000000",
"#	c #808080",
"...........+.",
"...++.....+++",
"..+++@#..++++",
"...+++@#+++@@",
"....+++@++@##",
".....+++++@#.",
".....++++@#..",
"....++++@#...",
"...++++++@...",
"..++++@+++@..",
".++++@#++++@.",
"+++++@..+++@@",
"++++@#...+@##",
".+@@#.....##.",
"..##........."};
